<?xml version="1.0" encoding="UTF-8"?>
<svg xmlns="http://www.w3.org/2000/svg" xmlns:xlink="http://www.w3.org/1999/xlink"
     width="154" height="400" viewBox="0 -400 154 400">
<defs>
</defs>
<path d="M10.2,-200 L64.4,-200 L64.4,-150 L10.2,-150 L10.2,-200 Z" fill="white" stroke="white" stroke-width="4" />
<path d="M10.2,-200 L16.22222222222222,-200 L16.22222222222222,-150 L10.2,-150 L10.2,-200 Z" fill="black" />
<path d="M16.22222222222222,-200 L22.244444444444444,-200 L22.244444444444444,-150 L16.22222222222222,-150 L16.22222222222222,-200 Z" fill="#f0f0f0" />
<path d="M22.244444444444444,-200 L28.266666666666666,-200 L28.266666666666666,-150 L22.244444444444444,-150 L22.244444444444444,-200 Z" fill="black" />
<path d="M28.266666666666666,-200 L34.28888888888889,-200 L34.28888888888889,-150 L28.266666666666666,-150 L28.266666666666666,-200 Z" fill="#f0f0f0" />
<path d="M34.28888888888889,-200 L40.31111111111112,-200 L40.31111111111112,-150 L34.28888888888889,-150 L34.28888888888889,-200 Z" fill="black" />
<path d="M40.31111111111112,-200 L46.33333333333334,-200 L46.33333333333334,-150 L40.31111111111112,-150 L40.31111111111112,-200 Z" fill="#f0f0f0" />
<path d="M46.33333333333334,-200 L52.35555555555557,-200 L52.35555555555557,-150 L46.33333333333334,-150 L46.33333333333334,-200 Z" fill="black" />
<path d="M52.35555555555557,-200 L58.377777777777794,-200 L58.377777777777794,-150 L52.35555555555557,-150 L52.35555555555557,-200 Z" fill="#f0f0f0" />
<path d="M58.377777777777794,-200 L64.40000000000002,-200 L64.40000000000002,-150 L58.377777777777794,-150 L58.377777777777794,-200 Z" fill="black" />
<text x="10.2" y="-210" font-size="26" fill="black" dy="0em">CRISPR: I-E</text>
<text x="16.0" y="-260" font-size="38" fill="black" dy="0em">I-E: k63_701403_1 (280-551)</text>
</svg>