<?xml version="1.0" encoding="UTF-8"?>
<svg xmlns="http://www.w3.org/2000/svg" xmlns:xlink="http://www.w3.org/1999/xlink"
     width="150" height="600" viewBox="0 -600 150 600">
<defs>
</defs>
<path d="M10.2,-400 L46.2,-400 L46.2,-350 L10.2,-350 L10.2,-400 Z" fill="white" stroke="white" stroke-width="4" />
<path d="M10.2,-400 L17.4,-400 L17.4,-350 L10.2,-350 L10.2,-400 Z" fill="black" />
<path d="M17.4,-400 L24.599999999999998,-400 L24.599999999999998,-350 L17.4,-350 L17.4,-400 Z" fill="#f0f0f0" />
<path d="M24.599999999999998,-400 L31.799999999999997,-400 L31.799999999999997,-350 L24.599999999999998,-350 L24.599999999999998,-400 Z" fill="black" />
<path d="M31.799999999999997,-400 L39.0,-400 L39.0,-350 L31.799999999999997,-350 L31.799999999999997,-400 Z" fill="#f0f0f0" />
<path d="M39.0,-400 L46.2,-400 L46.2,-350 L39.0,-350 L39.0,-400 Z" fill="black" />
<text x="10.2" y="-410" font-size="26" fill="black" dy="0em">CRISPR</text>
<text x="16.0" y="-460" font-size="38" fill="black" dy="0em">Unknown: k63_655691_1 (25-205)</text>
<path d="M10.2,-200 L60.2,-200 L60.2,-150 L10.2,-150 L10.2,-200 Z" fill="white" stroke="white" stroke-width="4" />
<path d="M10.2,-200 L17.34285714285714,-200 L17.34285714285714,-150 L10.2,-150 L10.2,-200 Z" fill="black" />
<path d="M17.34285714285714,-200 L24.485714285714284,-200 L24.485714285714284,-150 L17.34285714285714,-150 L17.34285714285714,-200 Z" fill="#f0f0f0" />
<path d="M24.485714285714284,-200 L31.628571428571426,-200 L31.628571428571426,-150 L24.485714285714284,-150 L24.485714285714284,-200 Z" fill="black" />
<path d="M31.628571428571426,-200 L38.77142857142857,-200 L38.77142857142857,-150 L31.628571428571426,-150 L31.628571428571426,-200 Z" fill="#f0f0f0" />
<path d="M38.77142857142857,-200 L45.91428571428572,-200 L45.91428571428572,-150 L38.77142857142857,-150 L38.77142857142857,-200 Z" fill="black" />
<path d="M45.91428571428572,-200 L53.057142857142864,-200 L53.057142857142864,-150 L45.91428571428572,-150 L45.91428571428572,-200 Z" fill="#f0f0f0" />
<path d="M53.057142857142864,-200 L60.20000000000001,-200 L60.20000000000001,-150 L53.057142857142864,-150 L53.057142857142864,-200 Z" fill="black" />
<text x="10.2" y="-210" font-size="26" fill="black" dy="0em">CRISPR</text>
<text x="16.0" y="-260" font-size="38" fill="black" dy="0em">Unknown: k63_983165_2 (2293-2543)</text>
</svg>