<?xml version="1.0" encoding="UTF-8"?>
<svg xmlns="http://www.w3.org/2000/svg" xmlns:xlink="http://www.w3.org/1999/xlink"
     width="2021" height="1200" viewBox="0 -1200 2021 1200">
<defs>
</defs>
<path d="M210,-20 L210,-1120" stroke="grey" stroke-width="1" fill="none" />
<text x="160" y="-1130" font-size="22" fill="grey" dy="0em">1000</text>
<path d="M410,-20 L410,-1120" stroke="grey" stroke-width="1" fill="none" />
<text x="360" y="-1130" font-size="22" fill="grey" dy="0em">2000</text>
<path d="M610,-20 L610,-1120" stroke="grey" stroke-width="1" fill="none" />
<text x="560" y="-1130" font-size="22" fill="grey" dy="0em">3000</text>
<path d="M810,-20 L810,-1120" stroke="grey" stroke-width="1" fill="none" />
<text x="760" y="-1130" font-size="22" fill="grey" dy="0em">4000</text>
<path d="M1010,-20 L1010,-1120" stroke="grey" stroke-width="1" fill="none" />
<text x="960" y="-1130" font-size="22" fill="grey" dy="0em">5000</text>
<path d="M1210,-20 L1210,-1120" stroke="grey" stroke-width="1" fill="none" />
<text x="1160" y="-1130" font-size="22" fill="grey" dy="0em">6000</text>
<path d="M1410,-20 L1410,-1120" stroke="grey" stroke-width="1" fill="none" />
<text x="1360" y="-1130" font-size="22" fill="grey" dy="0em">7000</text>
<path d="M1610,-20 L1610,-1120" stroke="grey" stroke-width="1" fill="none" />
<text x="1560" y="-1130" font-size="22" fill="grey" dy="0em">8000</text>
<path d="M1810,-20 L1810,-1120" stroke="grey" stroke-width="1" fill="none" />
<text x="1760" y="-1130" font-size="22" fill="grey" dy="0em">9000</text>
<path d="M2010,-20 L2010,-1120" stroke="grey" stroke-width="1" fill="none" />
<text x="1960" y="-1130" font-size="22" fill="grey" dy="0em">10000</text>
<text x="16.0" y="-1060" font-size="38" fill="black" dy="0em">I-E: k63_1418008@1 (257-5355)</text>
<path d="M10.2,-1000 L206.8,-1000 L236.8,-975.0 L206.8,-950 L10.2,-950 L10.2,-1000 Z" fill="#efc050" fill-opacity="0.8" stroke="#efc050" stroke-width="4" />
<text x="10.2" y="-1010" font-size="26" fill="black" dy="0em">Cas7</text>
<path d="M229.60000000000002,-1000 L350.0,-1000 L380.0,-975.0 L350.0,-950 L229.60000000000002,-950 L229.60000000000002,-1000 Z" fill="#efc050" fill-opacity="0.8" stroke="#efc050" stroke-width="4" />
<text x="229.60000000000002" y="-920" font-size="26" fill="black" dy="0em">Cas5</text>
<path d="M379.40000000000003,-1000 L507.6,-1000 L537.6,-975.0 L507.6,-950 L379.40000000000003,-950 L379.40000000000003,-1000 Z" fill="#dd1424" fill-opacity="0.8" stroke="#dd1424" stroke-width="4" />
<text x="379.40000000000003" y="-1010" font-size="26" fill="black" dy="0em">Cas6e</text>
<path d="M558.2,-1000 L593.4,-1000 L593.4,-950 L558.2,-950 L528.2,-975.0 L558.2,-1000 Z" fill="#d3c9c1" fill-opacity="0.8" stroke="#d3c9c1" stroke-width="4" />
<text x="528.2" y="-920" font-size="20" fill="black" dy="0em">4</text>
<path d="M636.8000000000001,-1000 L691.2,-1000 L721.2,-975.0 L691.2,-950 L636.8000000000001,-950 L636.8000000000001,-1000 Z" fill="#5b5ea6" fill-opacity="0.8" stroke="#5b5ea6" stroke-width="4" />
<text x="636.8000000000001" y="-1010" font-size="26" fill="black" dy="0em">Cas1</text>
<path d="M721.8000000000001,-1000 L750.4000000000001,-1000 L780.4000000000001,-975.0 L750.4000000000001,-950 L721.8000000000001,-950 L721.8000000000001,-1000 Z" fill="#5b5ea6" fill-opacity="0.8" stroke="#5b5ea6" stroke-width="4" />
<text x="721.8000000000001" y="-920" font-size="26" fill="black" dy="0em">Cas2</text>
<path d="M792.4000000000001,-1000 L1029.8000000000002,-1000 L1029.8000000000002,-950 L792.4000000000001,-950 L792.4000000000001,-1000 Z" fill="white" stroke="white" stroke-width="4" />
<path d="M792.4000000000001,-1000 L798.4871794871796,-1000 L798.4871794871796,-950 L792.4000000000001,-950 L792.4000000000001,-1000 Z" fill="black" />
<path d="M798.4871794871796,-1000 L804.574358974359,-1000 L804.574358974359,-950 L798.4871794871796,-950 L798.4871794871796,-1000 Z" fill="#f0f0f0" />
<path d="M804.574358974359,-1000 L810.6615384615385,-1000 L810.6615384615385,-950 L804.574358974359,-950 L804.574358974359,-1000 Z" fill="black" />
<path d="M810.6615384615385,-1000 L816.748717948718,-1000 L816.748717948718,-950 L810.6615384615385,-950 L810.6615384615385,-1000 Z" fill="#f0f0f0" />
<path d="M816.748717948718,-1000 L822.8358974358974,-1000 L822.8358974358974,-950 L816.748717948718,-950 L816.748717948718,-1000 Z" fill="black" />
<path d="M822.8358974358974,-1000 L828.9230769230769,-1000 L828.9230769230769,-950 L822.8358974358974,-950 L822.8358974358974,-1000 Z" fill="#f0f0f0" />
<path d="M828.9230769230769,-1000 L835.0102564102564,-1000 L835.0102564102564,-950 L828.9230769230769,-950 L828.9230769230769,-1000 Z" fill="black" />
<path d="M835.0102564102564,-1000 L841.0974358974358,-1000 L841.0974358974358,-950 L835.0102564102564,-950 L835.0102564102564,-1000 Z" fill="#f0f0f0" />
<path d="M841.0974358974358,-1000 L847.1846153846153,-1000 L847.1846153846153,-950 L841.0974358974358,-950 L841.0974358974358,-1000 Z" fill="black" />
<path d="M847.1846153846153,-1000 L853.2717948717948,-1000 L853.2717948717948,-950 L847.1846153846153,-950 L847.1846153846153,-1000 Z" fill="#f0f0f0" />
<path d="M853.2717948717948,-1000 L859.3589743589743,-1000 L859.3589743589743,-950 L853.2717948717948,-950 L853.2717948717948,-1000 Z" fill="black" />
<path d="M859.3589743589743,-1000 L865.4461538461537,-1000 L865.4461538461537,-950 L859.3589743589743,-950 L859.3589743589743,-1000 Z" fill="#f0f0f0" />
<path d="M865.4461538461537,-1000 L871.5333333333332,-1000 L871.5333333333332,-950 L865.4461538461537,-950 L865.4461538461537,-1000 Z" fill="black" />
<path d="M871.5333333333332,-1000 L877.6205128205127,-1000 L877.6205128205127,-950 L871.5333333333332,-950 L871.5333333333332,-1000 Z" fill="#f0f0f0" />
<path d="M877.6205128205127,-1000 L883.7076923076921,-1000 L883.7076923076921,-950 L877.6205128205127,-950 L877.6205128205127,-1000 Z" fill="black" />
<path d="M883.7076923076921,-1000 L889.7948717948716,-1000 L889.7948717948716,-950 L883.7076923076921,-950 L883.7076923076921,-1000 Z" fill="#f0f0f0" />
<path d="M889.7948717948716,-1000 L895.8820512820511,-1000 L895.8820512820511,-950 L889.7948717948716,-950 L889.7948717948716,-1000 Z" fill="black" />
<path d="M895.8820512820511,-1000 L901.9692307692305,-1000 L901.9692307692305,-950 L895.8820512820511,-950 L895.8820512820511,-1000 Z" fill="#f0f0f0" />
<path d="M901.9692307692305,-1000 L908.05641025641,-1000 L908.05641025641,-950 L901.9692307692305,-950 L901.9692307692305,-1000 Z" fill="black" />
<path d="M908.05641025641,-1000 L914.1435897435895,-1000 L914.1435897435895,-950 L908.05641025641,-950 L908.05641025641,-1000 Z" fill="#f0f0f0" />
<path d="M914.1435897435895,-1000 L920.2307692307689,-1000 L920.2307692307689,-950 L914.1435897435895,-950 L914.1435897435895,-1000 Z" fill="black" />
<path d="M920.2307692307689,-1000 L926.3179487179484,-1000 L926.3179487179484,-950 L920.2307692307689,-950 L920.2307692307689,-1000 Z" fill="#f0f0f0" />
<path d="M926.3179487179484,-1000 L932.4051282051279,-1000 L932.4051282051279,-950 L926.3179487179484,-950 L926.3179487179484,-1000 Z" fill="black" />
<path d="M932.4051282051279,-1000 L938.4923076923073,-1000 L938.4923076923073,-950 L932.4051282051279,-950 L932.4051282051279,-1000 Z" fill="#f0f0f0" />
<path d="M938.4923076923073,-1000 L944.5794871794868,-1000 L944.5794871794868,-950 L938.4923076923073,-950 L938.4923076923073,-1000 Z" fill="black" />
<path d="M944.5794871794868,-1000 L950.6666666666663,-1000 L950.6666666666663,-950 L944.5794871794868,-950 L944.5794871794868,-1000 Z" fill="#f0f0f0" />
<path d="M950.6666666666663,-1000 L956.7538461538458,-1000 L956.7538461538458,-950 L950.6666666666663,-950 L950.6666666666663,-1000 Z" fill="black" />
<path d="M956.7538461538458,-1000 L962.8410256410252,-1000 L962.8410256410252,-950 L956.7538461538458,-950 L956.7538461538458,-1000 Z" fill="#f0f0f0" />
<path d="M962.8410256410252,-1000 L968.9282051282047,-1000 L968.9282051282047,-950 L962.8410256410252,-950 L962.8410256410252,-1000 Z" fill="black" />
<path d="M968.9282051282047,-1000 L975.0153846153842,-1000 L975.0153846153842,-950 L968.9282051282047,-950 L968.9282051282047,-1000 Z" fill="#f0f0f0" />
<path d="M975.0153846153842,-1000 L981.1025641025636,-1000 L981.1025641025636,-950 L975.0153846153842,-950 L975.0153846153842,-1000 Z" fill="black" />
<path d="M981.1025641025636,-1000 L987.1897435897431,-1000 L987.1897435897431,-950 L981.1025641025636,-950 L981.1025641025636,-1000 Z" fill="#f0f0f0" />
<path d="M987.1897435897431,-1000 L993.2769230769226,-1000 L993.2769230769226,-950 L987.1897435897431,-950 L987.1897435897431,-1000 Z" fill="black" />
<path d="M993.2769230769226,-1000 L999.364102564102,-1000 L999.364102564102,-950 L993.2769230769226,-950 L993.2769230769226,-1000 Z" fill="#f0f0f0" />
<path d="M999.364102564102,-1000 L1005.4512820512815,-1000 L1005.4512820512815,-950 L999.364102564102,-950 L999.364102564102,-1000 Z" fill="black" />
<path d="M1005.4512820512815,-1000 L1011.538461538461,-1000 L1011.538461538461,-950 L1005.4512820512815,-950 L1005.4512820512815,-1000 Z" fill="#f0f0f0" />
<path d="M1011.538461538461,-1000 L1017.6256410256404,-1000 L1017.6256410256404,-950 L1011.538461538461,-950 L1011.538461538461,-1000 Z" fill="black" />
<path d="M1017.6256410256404,-1000 L1023.7128205128199,-1000 L1023.7128205128199,-950 L1017.6256410256404,-950 L1017.6256410256404,-1000 Z" fill="#f0f0f0" />
<path d="M1023.7128205128199,-1000 L1029.7999999999995,-1000 L1029.7999999999995,-950 L1023.7128205128199,-950 L1023.7128205128199,-1000 Z" fill="black" />
<text x="792.4000000000001" y="-1010" font-size="26" fill="black" dy="0em">CRISPR: I-E</text>
<text x="16.0" y="-860" font-size="38" fill="black" dy="0em">I-G: k63_1351752@1 (28-9530)</text>
<path d="M137.4,-800 L166.0,-800 L166.0,-750 L137.4,-750 L107.4,-775.0 L137.4,-800 Z" fill="#5b5ea6" fill-opacity="0.8" stroke="#5b5ea6" stroke-width="4" />
<text x="107.4" y="-810" font-size="26" fill="black" dy="0em">Cas2</text>
<path d="M197.20000000000002,-800 L504.8,-800 L504.8,-750 L197.20000000000002,-750 L167.20000000000002,-775.0 L197.20000000000002,-800 Z" fill="#5b5ea6" fill-opacity="0.8" stroke="#5b5ea6" stroke-width="4" />
<text x="167.20000000000002" y="-720" font-size="26" fill="black" dy="0em">Cas1</text>
<path d="M564.8000000000001,-800 L967.2,-800 L967.2,-750 L564.8000000000001,-750 L534.8000000000001,-775.0 L564.8000000000001,-800 Z" fill="#efc050" fill-opacity="0.8" stroke="#efc050" stroke-width="4" />
<text x="534.8000000000001" y="-810" font-size="26" fill="black" dy="0em">Csb2gr5</text>
<path d="M1002.0,-800 L1182.4,-800 L1182.4,-750 L1002.0,-750 L972.0,-775.0 L1002.0,-800 Z" fill="#efc050" fill-opacity="0.8" stroke="#efc050" stroke-width="4" />
<text x="972.0" y="-720" font-size="26" fill="black" dy="0em">Cas7</text>
<path d="M1208.6000000000001,-800 L1363.8000000000002,-800 L1363.8000000000002,-750 L1208.6000000000001,-750 L1178.6000000000001,-775.0 L1208.6000000000001,-800 Z" fill="#efc050" fill-opacity="0.8" stroke="#efc050" stroke-width="4" />
<text x="1178.6000000000001" y="-810" font-size="26" fill="black" dy="0em">Csb3</text>
<path d="M1392.4,-800 L1910.6000000000001,-800 L1910.6000000000001,-750 L1392.4,-750 L1362.4,-775.0 L1392.4,-800 Z" fill="#efc050" fill-opacity="0.8" stroke="#efc050" stroke-width="4" />
<text x="1362.4" y="-720" font-size="26" fill="black" dy="0em">Cas3</text>
<path d="M10.2,-800 L62.6,-800 L62.6,-750 L10.2,-750 L10.2,-800 Z" fill="white" stroke="white" stroke-width="4" />
<path d="M10.2,-800 L17.685714285714283,-800 L17.685714285714283,-750 L10.2,-750 L10.2,-800 Z" fill="black" />
<path d="M17.685714285714283,-800 L25.17142857142857,-800 L25.17142857142857,-750 L17.685714285714283,-750 L17.685714285714283,-800 Z" fill="#f0f0f0" />
<path d="M25.17142857142857,-800 L32.65714285714286,-800 L32.65714285714286,-750 L25.17142857142857,-750 L25.17142857142857,-800 Z" fill="black" />
<path d="M32.65714285714286,-800 L40.142857142857146,-800 L40.142857142857146,-750 L32.65714285714286,-750 L32.65714285714286,-800 Z" fill="#f0f0f0" />
<path d="M40.142857142857146,-800 L47.62857142857143,-800 L47.62857142857143,-750 L40.142857142857146,-750 L40.142857142857146,-800 Z" fill="black" />
<path d="M47.62857142857143,-800 L55.11428571428572,-800 L55.11428571428572,-750 L47.62857142857143,-750 L47.62857142857143,-800 Z" fill="#f0f0f0" />
<path d="M55.11428571428572,-800 L62.60000000000001,-800 L62.60000000000001,-750 L55.11428571428572,-750 L55.11428571428572,-800 Z" fill="black" />
<text x="10.2" y="-810" font-size="26" fill="black" dy="0em">CRISPR: I-G</text>
<text x="16.0" y="-660" font-size="38" fill="black" dy="0em">I-G: k63_1392346@1 (260-9865)</text>
<path d="M10.2,-600 L220.0,-600 L250.0,-575.0 L220.0,-550 L10.2,-550 L10.2,-600 Z" fill="#efc050" fill-opacity="0.8" stroke="#efc050" stroke-width="4" />
<text x="10.2" y="-610" font-size="26" fill="black" dy="0em">Csb1gr7</text>
<path d="M250.0,-600 L697.4000000000001,-600 L727.4000000000001,-575.0 L697.4000000000001,-550 L250.0,-550 L250.0,-600 Z" fill="#efc050" fill-opacity="0.8" stroke="#efc050" stroke-width="4" />
<text x="250.0" y="-520" font-size="26" fill="black" dy="0em">Csb2</text>
<path d="M726.0,-600 L1292.8000000000002,-600 L1322.8000000000002,-575.0 L1292.8000000000002,-550 L726.0,-550 L726.0,-600 Z" fill="#efc050" fill-opacity="0.8" stroke="#efc050" stroke-width="4" />
<text x="726.0" y="-610" font-size="26" fill="black" dy="0em">Cas3</text>
<path d="M1320.2,-600 L1477.8000000000002,-600 L1507.8000000000002,-575.0 L1477.8000000000002,-550 L1320.2,-550 L1320.2,-600 Z" fill="#efc050" fill-opacity="0.8" stroke="#efc050" stroke-width="4" />
<text x="1320.2" y="-520" font-size="26" fill="black" dy="0em">Cas8u1</text>
<path d="M1529.0,-600 L1841.4,-600 L1871.4,-575.0 L1841.4,-550 L1529.0,-550 L1529.0,-600 Z" fill="#5b5ea6" fill-opacity="0.8" stroke="#5b5ea6" stroke-width="4" />
<text x="1529.0" y="-610" font-size="26" fill="black" dy="0em">Cas1</text>
<path d="M1872.6000000000001,-600 L1901.2,-600 L1931.2,-575.0 L1901.2,-550 L1872.6000000000001,-550 L1872.6000000000001,-600 Z" fill="#5b5ea6" fill-opacity="0.8" stroke="#5b5ea6" stroke-width="4" />
<text x="1872.6000000000001" y="-520" font-size="26" fill="black" dy="0em">Cas2</text>
<text x="16.0" y="-460" font-size="38" fill="black" dy="0em">I-C: k63_1233588@1 (593-6217)</text>
<path d="M10.2,-400 L429.40000000000003,-400 L459.40000000000003,-375.0 L429.40000000000003,-350 L10.2,-350 L10.2,-400 Z" fill="#efc050" fill-opacity="0.8" stroke="#efc050" stroke-width="4" />
<text x="10.2" y="-410" font-size="26" fill="black" dy="0em">Cas3</text>
<path d="M518.8,-400 L622.4000000000001,-400 L652.4000000000001,-375.0 L622.4000000000001,-350 L518.8,-350 L518.8,-400 Z" fill="#efc050" fill-opacity="0.8" stroke="#efc050" stroke-width="4" />
<text x="518.8" y="-320" font-size="26" fill="black" dy="0em">Cas5</text>
<path d="M651.8000000000001,-400 L973.2,-400 L1003.2,-375.0 L973.2,-350 L651.8000000000001,-350 L651.8000000000001,-400 Z" fill="#efc050" fill-opacity="0.8" stroke="#efc050" stroke-width="4" />
<text x="651.8000000000001" y="-410" font-size="26" fill="black" dy="0em">Cas8c</text>
<path d="M1002.6,-400 L1105.0,-400 L1135.0,-375.0 L1105.0,-350 L1002.6,-350 L1002.6,-400 Z" fill="#efc050" fill-opacity="0.8" stroke="#efc050" stroke-width="4" />
<text x="1002.6" y="-320" font-size="26" fill="black" dy="0em">Cas7</text>
<text x="16.0" y="-260" font-size="38" fill="black" dy="0em">I-E: k63_992572@1 (12-4719)</text>
<path d="M40.2,-200 L79.0,-200 L79.0,-150 L40.2,-150 L10.2,-175.0 L40.2,-200 Z" fill="#efc050" fill-opacity="0.8" stroke="#efc050" stroke-width="4" />
<text x="10.2" y="-210" font-size="26" fill="black" dy="0em">Cse2gr11</text>
<path d="M102.80000000000001,-200 L392.40000000000003,-200 L392.40000000000003,-150 L102.80000000000001,-150 L72.80000000000001,-175.0 L102.80000000000001,-200 Z" fill="#efc050" fill-opacity="0.8" stroke="#efc050" stroke-width="4" />
<text x="72.80000000000001" y="-120" font-size="26" fill="black" dy="0em">Cas8e</text>
<path d="M456.8,-200 L951.6,-200 L951.6,-150 L456.8,-150 L426.8,-175.0 L456.8,-200 Z" fill="#efc050" fill-opacity="0.8" stroke="#efc050" stroke-width="4" />
<text x="426.8" y="-210" font-size="26" fill="black" dy="0em">Cas3</text>
</svg>