<?xml version="1.0" encoding="UTF-8"?>
<svg xmlns="http://www.w3.org/2000/svg" xmlns:xlink="http://www.w3.org/1999/xlink"
     width="1985" height="400" viewBox="0 -400 1985 400">
<defs>
</defs>
<path d="M210,-20 L210,-320" stroke="grey" stroke-width="1" fill="none" />
<text x="160" y="-330" font-size="22" fill="grey" dy="0em">1000</text>
<path d="M410,-20 L410,-320" stroke="grey" stroke-width="1" fill="none" />
<text x="360" y="-330" font-size="22" fill="grey" dy="0em">2000</text>
<path d="M610,-20 L610,-320" stroke="grey" stroke-width="1" fill="none" />
<text x="560" y="-330" font-size="22" fill="grey" dy="0em">3000</text>
<path d="M810,-20 L810,-320" stroke="grey" stroke-width="1" fill="none" />
<text x="760" y="-330" font-size="22" fill="grey" dy="0em">4000</text>
<path d="M1010,-20 L1010,-320" stroke="grey" stroke-width="1" fill="none" />
<text x="960" y="-330" font-size="22" fill="grey" dy="0em">5000</text>
<path d="M1210,-20 L1210,-320" stroke="grey" stroke-width="1" fill="none" />
<text x="1160" y="-330" font-size="22" fill="grey" dy="0em">6000</text>
<path d="M1410,-20 L1410,-320" stroke="grey" stroke-width="1" fill="none" />
<text x="1360" y="-330" font-size="22" fill="grey" dy="0em">7000</text>
<path d="M1610,-20 L1610,-320" stroke="grey" stroke-width="1" fill="none" />
<text x="1560" y="-330" font-size="22" fill="grey" dy="0em">8000</text>
<path d="M1810,-20 L1810,-320" stroke="grey" stroke-width="1" fill="none" />
<text x="1760" y="-330" font-size="22" fill="grey" dy="0em">9000</text>
<text x="16.0" y="-260" font-size="38" fill="black" dy="0em">I-E: k141_505@1 (3894-13319)</text>
<path d="M40.2,-200 L516.4000000000001,-200 L516.4000000000001,-150 L40.2,-150 L10.2,-175.0 L40.2,-200 Z" fill="#efc050" fill-opacity="0.8" stroke="#efc050" stroke-width="4" />
<text x="10.2" y="-210" font-size="26" fill="black" dy="0em">Cas3</text>
<path d="M537.2,-200 L809.4000000000001,-200 L839.4000000000001,-175.0 L809.4000000000001,-150 L537.2,-150 L537.2,-200 Z" fill="#efc050" fill-opacity="0.8" stroke="#efc050" stroke-width="4" />
<text x="537.2" y="-120" font-size="26" fill="black" dy="0em">Cas8e</text>
<path d="M838.0,-200 L919.4000000000001,-200 L949.4000000000001,-175.0 L919.4000000000001,-150 L838.0,-150 L838.0,-200 Z" fill="#efc050" fill-opacity="0.8" stroke="#efc050" stroke-width="4" />
<text x="838.0" y="-210" font-size="26" fill="black" dy="0em">Cse2gr11</text>
<path d="M948.0,-200 L1141.0,-200 L1171.0,-175.0 L1141.0,-150 L948.0,-150 L948.0,-200 Z" fill="#efc050" fill-opacity="0.8" stroke="#efc050" stroke-width="4" />
<text x="948.0" y="-120" font-size="26" fill="black" dy="0em">Cas7</text>
<path d="M1170.4,-200 L1277.6000000000001,-200 L1307.6000000000001,-175.0 L1277.6000000000001,-150 L1170.4,-150 L1170.4,-200 Z" fill="#efc050" fill-opacity="0.8" stroke="#efc050" stroke-width="4" />
<text x="1170.4" y="-210" font-size="26" fill="black" dy="0em">Cas5</text>
<path d="M1307.0,-200 L1435.2,-200 L1465.2,-175.0 L1435.2,-150 L1307.0,-150 L1307.0,-200 Z" fill="#dd1424" fill-opacity="0.8" stroke="#dd1424" stroke-width="4" />
<text x="1307.0" y="-120" font-size="26" fill="black" dy="0em">Cas6e</text>
<path d="M1466.0,-200 L1611.0,-200 L1641.0,-175.0 L1611.0,-150 L1466.0,-150 L1466.0,-200 Z" fill="#5b5ea6" fill-opacity="0.8" stroke="#5b5ea6" stroke-width="4" />
<text x="1466.0" y="-210" font-size="26" fill="black" dy="0em">Cas1</text>
<path d="M1647.4,-200 L1676.0,-200 L1706.0,-175.0 L1676.0,-150 L1647.4,-150 L1647.4,-200 Z" fill="#5b5ea6" fill-opacity="0.8" stroke="#5b5ea6" stroke-width="4" />
<text x="1647.4" y="-120" font-size="26" fill="black" dy="0em">Cas2</text>
<path d="M1719.0,-200 L1895.2,-200 L1895.2,-150 L1719.0,-150 L1719.0,-200 Z" fill="white" stroke="white" stroke-width="4" />
<path d="M1719.0,-200 L1725.0758620689655,-200 L1725.0758620689655,-150 L1719.0,-150 L1719.0,-200 Z" fill="black" />
<path d="M1725.0758620689655,-200 L1731.151724137931,-200 L1731.151724137931,-150 L1725.0758620689655,-150 L1725.0758620689655,-200 Z" fill="#f0f0f0" />
<path d="M1731.151724137931,-200 L1737.2275862068966,-200 L1737.2275862068966,-150 L1731.151724137931,-150 L1731.151724137931,-200 Z" fill="black" />
<path d="M1737.2275862068966,-200 L1743.3034482758621,-200 L1743.3034482758621,-150 L1737.2275862068966,-150 L1737.2275862068966,-200 Z" fill="#f0f0f0" />
<path d="M1743.3034482758621,-200 L1749.3793103448277,-200 L1749.3793103448277,-150 L1743.3034482758621,-150 L1743.3034482758621,-200 Z" fill="black" />
<path d="M1749.3793103448277,-200 L1755.4551724137932,-200 L1755.4551724137932,-150 L1749.3793103448277,-150 L1749.3793103448277,-200 Z" fill="#f0f0f0" />
<path d="M1755.4551724137932,-200 L1761.5310344827587,-200 L1761.5310344827587,-150 L1755.4551724137932,-150 L1755.4551724137932,-200 Z" fill="black" />
<path d="M1761.5310344827587,-200 L1767.6068965517243,-200 L1767.6068965517243,-150 L1761.5310344827587,-150 L1761.5310344827587,-200 Z" fill="#f0f0f0" />
<path d="M1767.6068965517243,-200 L1773.6827586206898,-200 L1773.6827586206898,-150 L1767.6068965517243,-150 L1767.6068965517243,-200 Z" fill="black" />
<path d="M1773.6827586206898,-200 L1779.7586206896553,-200 L1779.7586206896553,-150 L1773.6827586206898,-150 L1773.6827586206898,-200 Z" fill="#f0f0f0" />
<path d="M1779.7586206896553,-200 L1785.8344827586209,-200 L1785.8344827586209,-150 L1779.7586206896553,-150 L1779.7586206896553,-200 Z" fill="black" />
<path d="M1785.8344827586209,-200 L1791.9103448275864,-200 L1791.9103448275864,-150 L1785.8344827586209,-150 L1785.8344827586209,-200 Z" fill="#f0f0f0" />
<path d="M1791.9103448275864,-200 L1797.986206896552,-200 L1797.986206896552,-150 L1791.9103448275864,-150 L1791.9103448275864,-200 Z" fill="black" />
<path d="M1797.986206896552,-200 L1804.0620689655175,-200 L1804.0620689655175,-150 L1797.986206896552,-150 L1797.986206896552,-200 Z" fill="#f0f0f0" />
<path d="M1804.0620689655175,-200 L1810.137931034483,-200 L1810.137931034483,-150 L1804.0620689655175,-150 L1804.0620689655175,-200 Z" fill="black" />
<path d="M1810.137931034483,-200 L1816.2137931034486,-200 L1816.2137931034486,-150 L1810.137931034483,-150 L1810.137931034483,-200 Z" fill="#f0f0f0" />
<path d="M1816.2137931034486,-200 L1822.289655172414,-200 L1822.289655172414,-150 L1816.2137931034486,-150 L1816.2137931034486,-200 Z" fill="black" />
<path d="M1822.289655172414,-200 L1828.3655172413796,-200 L1828.3655172413796,-150 L1822.289655172414,-150 L1822.289655172414,-200 Z" fill="#f0f0f0" />
<path d="M1828.3655172413796,-200 L1834.4413793103452,-200 L1834.4413793103452,-150 L1828.3655172413796,-150 L1828.3655172413796,-200 Z" fill="black" />
<path d="M1834.4413793103452,-200 L1840.5172413793107,-200 L1840.5172413793107,-150 L1834.4413793103452,-150 L1834.4413793103452,-200 Z" fill="#f0f0f0" />
<path d="M1840.5172413793107,-200 L1846.5931034482762,-200 L1846.5931034482762,-150 L1840.5172413793107,-150 L1840.5172413793107,-200 Z" fill="black" />
<path d="M1846.5931034482762,-200 L1852.6689655172418,-200 L1852.6689655172418,-150 L1846.5931034482762,-150 L1846.5931034482762,-200 Z" fill="#f0f0f0" />
<path d="M1852.6689655172418,-200 L1858.7448275862073,-200 L1858.7448275862073,-150 L1852.6689655172418,-150 L1852.6689655172418,-200 Z" fill="black" />
<path d="M1858.7448275862073,-200 L1864.8206896551728,-200 L1864.8206896551728,-150 L1858.7448275862073,-150 L1858.7448275862073,-200 Z" fill="#f0f0f0" />
<path d="M1864.8206896551728,-200 L1870.8965517241384,-200 L1870.8965517241384,-150 L1864.8206896551728,-150 L1864.8206896551728,-200 Z" fill="black" />
<path d="M1870.8965517241384,-200 L1876.972413793104,-200 L1876.972413793104,-150 L1870.8965517241384,-150 L1870.8965517241384,-200 Z" fill="#f0f0f0" />
<path d="M1876.972413793104,-200 L1883.0482758620694,-200 L1883.0482758620694,-150 L1876.972413793104,-150 L1876.972413793104,-200 Z" fill="black" />
<path d="M1883.0482758620694,-200 L1889.124137931035,-200 L1889.124137931035,-150 L1883.0482758620694,-150 L1883.0482758620694,-200 Z" fill="#f0f0f0" />
<path d="M1889.124137931035,-200 L1895.2000000000005,-200 L1895.2000000000005,-150 L1889.124137931035,-150 L1889.124137931035,-200 Z" fill="black" />
<text x="1719.0" y="-210" font-size="26" fill="black" dy="0em">CRISPR: I-E</text>
</svg>