<?xml version="1.0" encoding="UTF-8"?>
<svg xmlns="http://www.w3.org/2000/svg" xmlns:xlink="http://www.w3.org/1999/xlink"
     width="202" height="400" viewBox="0 -400 202 400">
<defs>
</defs>
<path d="M210,-20 L210,-320" stroke="grey" stroke-width="1" fill="none" />
<text x="160" y="-330" font-size="22" fill="grey" dy="0em">1000</text>
<path d="M10.2,-200 L111.80000000000001,-200 L111.80000000000001,-150 L10.2,-150 L10.2,-200 Z" fill="white" stroke="white" stroke-width="4" />
<path d="M10.2,-200 L16.176470588235293,-200 L16.176470588235293,-150 L10.2,-150 L10.2,-200 Z" fill="black" />
<path d="M16.176470588235293,-200 L22.152941176470588,-200 L22.152941176470588,-150 L16.176470588235293,-150 L16.176470588235293,-200 Z" fill="#f0f0f0" />
<path d="M22.152941176470588,-200 L28.129411764705882,-200 L28.129411764705882,-150 L22.152941176470588,-150 L22.152941176470588,-200 Z" fill="black" />
<path d="M28.129411764705882,-200 L34.10588235294118,-200 L34.10588235294118,-150 L28.129411764705882,-150 L28.129411764705882,-200 Z" fill="#f0f0f0" />
<path d="M34.10588235294118,-200 L40.082352941176474,-200 L40.082352941176474,-150 L34.10588235294118,-150 L34.10588235294118,-200 Z" fill="black" />
<path d="M40.082352941176474,-200 L46.05882352941177,-200 L46.05882352941177,-150 L40.082352941176474,-150 L40.082352941176474,-200 Z" fill="#f0f0f0" />
<path d="M46.05882352941177,-200 L52.03529411764706,-200 L52.03529411764706,-150 L46.05882352941177,-150 L46.05882352941177,-200 Z" fill="black" />
<path d="M52.03529411764706,-200 L58.01176470588236,-200 L58.01176470588236,-150 L52.03529411764706,-150 L52.03529411764706,-200 Z" fill="#f0f0f0" />
<path d="M58.01176470588236,-200 L63.98823529411765,-200 L63.98823529411765,-150 L58.01176470588236,-150 L58.01176470588236,-200 Z" fill="black" />
<path d="M63.98823529411765,-200 L69.96470588235294,-200 L69.96470588235294,-150 L63.98823529411765,-150 L63.98823529411765,-200 Z" fill="#f0f0f0" />
<path d="M69.96470588235294,-200 L75.94117647058823,-200 L75.94117647058823,-150 L69.96470588235294,-150 L69.96470588235294,-200 Z" fill="black" />
<path d="M75.94117647058823,-200 L81.91764705882352,-200 L81.91764705882352,-150 L75.94117647058823,-150 L75.94117647058823,-200 Z" fill="#f0f0f0" />
<path d="M81.91764705882352,-200 L87.8941176470588,-200 L87.8941176470588,-150 L81.91764705882352,-150 L81.91764705882352,-200 Z" fill="black" />
<path d="M87.8941176470588,-200 L93.8705882352941,-200 L93.8705882352941,-150 L87.8941176470588,-150 L87.8941176470588,-200 Z" fill="#f0f0f0" />
<path d="M93.8705882352941,-200 L99.84705882352938,-200 L99.84705882352938,-150 L93.8705882352941,-150 L93.8705882352941,-200 Z" fill="black" />
<path d="M99.84705882352938,-200 L105.82352941176467,-200 L105.82352941176467,-150 L99.84705882352938,-150 L99.84705882352938,-200 Z" fill="#f0f0f0" />
<path d="M105.82352941176467,-200 L111.79999999999995,-200 L111.79999999999995,-150 L105.82352941176467,-150 L105.82352941176467,-200 Z" fill="black" />
<text x="10.2" y="-210" font-size="26" fill="black" dy="0em">CRISPR</text>
<text x="16.0" y="-260" font-size="38" fill="black" dy="0em">Unknown: k63_247753_1 (1662-2170)</text>
</svg>